<svg width="114" height="32" viewBox="0 0 114 32" fill="none" xmlns="http://www.w3.org/2000/svg">
<path fill-rule="evenodd" clip-rule="evenodd" d="M114 2.53627V0.160156H103.436V2.53627H107.426V12.3904H110.028V2.53627H114ZM89.6391 31.0669H98.2691V28.6908H92.2404V25.9653H97.777V23.694H92.2404V21.213H98.234V18.8369H89.6391V31.0669ZM89.6391 12.3904H98.2691V10.0143H92.2404V7.2885H97.777V5.01744H92.2404V2.53627H98.234V0.160156H89.6391V12.3904ZM80.9124 26.4894V26.4545C82.4591 25.8604 83.3204 24.5326 83.3204 22.7855C83.3204 20.3395 81.7209 18.8369 79.1196 18.8369H74.2509V31.0669H76.8522V26.7689H78.2759L80.6312 31.0669H83.4258L80.9124 26.4894ZM80.719 22.768C80.719 23.8337 80.0511 24.3928 78.8208 24.3928H76.8522V21.213H78.8208C80.0687 21.213 80.719 21.7197 80.719 22.768ZM80.939 12.3904H83.1536V0.160156H80.64V7.11379H80.605L76.7204 0.160156H74.5234V12.3904H77.0192V5.41906H77.0544L80.939 12.3904ZM69.1891 24.9519C69.1891 21.0733 67.0975 18.5748 64.1623 18.5748C61.227 18.5748 59.153 21.0733 59.153 24.9519C59.153 28.8306 61.2094 31.329 64.1623 31.329C67.0975 31.329 69.1891 28.8306 69.1891 24.9519ZM66.5878 24.9519C66.5878 27.4853 65.6739 28.9529 64.1623 28.9529C62.6507 28.9529 61.7543 27.4853 61.7543 24.9519C61.7543 22.4186 62.6507 20.951 64.1623 20.951C65.6739 20.951 66.5878 22.4186 66.5878 24.9519ZM66.2451 7.81265V7.7777C67.7918 7.18368 68.6531 5.85585 68.6531 4.1087C68.6531 1.6627 67.0536 0.160156 64.4523 0.160156H59.5836V12.3902H62.1849V8.09219H63.6086L65.9639 12.3902H68.7585L66.2451 7.81265ZM66.0517 4.09123C66.0517 5.15699 65.3838 5.71607 64.1535 5.71607H62.1849V2.53627H64.1535C65.4014 2.53627 66.0517 3.04294 66.0517 4.09123ZM50.4439 21.213H54.4162V18.8369H43.8527V21.213H47.8426V31.0669H50.4439V21.213ZM44.8194 12.3904H53.4495V10.0143H47.4207V7.2885H52.9573V5.01744H47.4207V2.53627H53.4143V0.160156H44.8194V12.3904ZM35.3286 2.53627H39.3007V0.160156H28.7372V2.53627H32.7271V12.3904H35.3286V2.53627ZM21.1796 12.3904H23.3942V0.160156H20.8806V7.11379H20.8456L16.961 0.160156H14.764V12.3904H17.2598V5.41906H17.295L21.1796 12.3904ZM0 12.3904H8.27849V10.0143H5.44869V2.53627H8.27849V0.160156H0V2.53627H2.84738V10.0143H0V12.3904ZM0 25.9128H23.3942V23.9912H0V25.9128ZM31.6285 26.4894L29.0975 27.0135C29.5545 29.774 31.3649 31.329 34.3529 31.329C37.1651 31.329 38.9403 29.9662 38.9403 27.7998C38.9403 25.7556 37.6748 24.5675 34.4935 23.5542C32.7183 22.9776 32.2261 22.6107 32.2261 22.0342C32.2261 21.4052 32.8589 20.916 33.9135 20.916C35.056 20.916 35.7239 21.4576 36.0754 22.7156L38.6064 22.1565C38.0791 19.9551 36.3918 18.5748 33.9135 18.5748C31.3825 18.5748 29.6424 19.9726 29.6424 22.0167C29.6424 23.8512 30.8025 24.917 33.685 25.808C35.7414 26.4545 36.3215 26.9786 36.3215 27.7823C36.3215 28.5685 35.6184 28.9878 34.388 28.9878C32.6831 28.9878 31.9449 28.3239 31.6285 26.4894ZM106.328 26.4894L103.797 27.0135C104.254 29.774 106.064 31.329 109.052 31.329C111.864 31.329 113.639 29.9662 113.639 27.7998C113.639 25.7556 112.374 24.5675 109.193 23.5542C107.418 22.9776 106.925 22.6107 106.925 22.0342C106.925 21.4052 107.558 20.916 108.613 20.916C109.755 20.916 110.423 21.4576 110.775 22.7156L113.306 22.1565C112.778 19.9551 111.091 18.5748 108.613 18.5748C106.082 18.5748 104.342 19.9726 104.342 22.0167C104.342 23.8512 105.502 24.917 108.384 25.808C110.441 26.4545 111.021 26.9786 111.021 27.7823C111.021 28.5685 110.318 28.9878 109.087 28.9878C107.382 28.9878 106.644 28.3239 106.328 26.4894Z" fill="white"/>
</svg>
