<svg width="226" height="226" viewBox="0 0 226 226" fill="none" xmlns="http://www.w3.org/2000/svg">
<path d="M220.098 103.995C209.109 84.5013 185.63 75.8194 164.602 83.475L140.832 31.9745H163.095C166.2 31.9745 168.719 34.4926 168.719 37.5985C168.719 40.7043 166.2 43.2224 163.095 43.2224H161.22C159.149 43.2224 157.471 44.9012 157.471 46.9717C157.471 49.0423 159.149 50.721 161.22 50.721H163.095C170.342 50.721 176.217 44.8459 176.217 37.5985C176.217 30.3511 170.342 24.4759 163.095 24.4759H134.975C132.904 24.4759 131.226 26.1547 131.226 28.2252C131.226 28.7675 131.343 29.3036 131.571 29.7962L141.229 50.721H82.2335L77.0782 39.4731H80.2988C85.6453 39.4839 89.988 35.1581 89.9987 29.8116C90.0086 24.8612 86.2818 20.7008 81.3599 20.168L60.7612 17.8734C54.8143 17.2252 49.4678 21.521 48.8201 27.4683C48.172 33.4152 52.4677 38.7617 58.4151 39.4094C58.8008 39.4516 59.1888 39.4727 59.5769 39.4731H68.8302L75.1552 53.2743L60.7767 83.6437C37.5258 74.92 11.605 86.6966 2.88136 109.947C-5.84233 133.198 5.93423 159.119 29.1851 167.843C52.4359 176.566 78.3567 164.79 87.0804 141.539C88.5374 137.656 89.4499 133.59 89.7925 129.456H98.0147C100.04 137.466 108.176 142.317 116.185 140.292C124.195 138.266 129.046 130.131 127.021 122.121C126.241 119.039 124.501 116.287 122.051 114.26L146.616 62.3964L157.789 86.6094C135.782 99.0144 127.998 126.911 140.403 148.917C152.808 170.924 180.705 178.708 202.711 166.303C224.718 153.899 232.502 126.002 220.098 103.995ZM59.5764 31.9741C57.7351 31.9741 56.2414 30.4823 56.2395 28.6409C56.2414 26.8052 57.7257 25.3162 59.5614 25.3078C59.6889 25.3078 59.8126 25.3078 59.9364 25.3265L80.535 27.6174C81.7339 27.758 82.592 28.8443 82.4509 30.0432C82.3225 31.137 81.4002 31.9647 80.2988 31.9741H59.5764ZM64.3268 93.6463C74.4368 99.7305 81.0932 110.219 82.2934 121.957H50.9155L64.3268 93.6463ZM44.9916 163.2C24.2847 163.268 7.44379 146.537 7.37536 125.83C7.30741 105.124 24.0382 88.2825 44.7447 88.2141C49.1112 88.1996 53.4463 88.948 57.5556 90.4257L41.6173 124.102C40.731 125.973 41.5296 128.209 43.401 129.095C43.8983 129.331 44.4414 129.454 44.9916 129.456H82.2934C80.348 148.603 64.2373 163.177 44.9916 163.2ZM98.0143 121.957H89.7921C88.5538 107.324 80.2515 94.2153 67.5512 86.8414L79.234 62.1747L103.053 114.14C100.585 116.144 98.8194 118.882 98.0143 121.957ZM112.479 133.205C108.338 133.205 104.98 129.848 104.98 125.707C104.98 121.565 108.338 118.208 112.479 118.208C116.621 118.208 119.978 121.565 119.978 125.707C119.978 129.848 116.621 133.205 112.479 133.205ZM115.299 110.998C114.37 110.812 113.426 110.716 112.479 110.709C111.598 110.722 110.72 110.811 109.855 110.976L85.6716 58.2192H140.299L115.299 110.998ZM180.278 163.484C159.493 163.57 142.573 146.79 142.487 126.005C142.432 112.65 149.458 100.266 160.95 93.4631L176.562 127.286C177.392 129.183 179.602 130.049 181.5 129.219C183.397 128.39 184.263 126.18 183.433 124.282C183.414 124.237 183.393 124.192 183.371 124.148L167.751 90.3067C171.678 88.9321 175.807 88.2249 179.967 88.2145C200.752 88.1288 217.671 104.909 217.757 125.694C217.843 146.479 201.063 163.398 180.278 163.484Z" fill="#F0F1F5"/>
<path d="M179.967 170.698H44.9916H0V178.197H224.958V170.698H179.967Z" fill="#F0F1F5"/>
<path d="M52.4903 200.693H7.49866C5.42811 200.693 3.74936 202.371 3.74936 204.442C3.74936 206.513 5.42811 208.191 7.49866 208.191H52.4903C54.5608 208.191 56.2396 206.513 56.2396 204.442C56.2396 202.371 54.5608 200.693 52.4903 200.693Z" fill="#F0F1F5"/>
<path d="M138.724 200.693H86.234C84.1634 200.693 82.4846 202.371 82.4846 204.442C82.4846 206.513 84.1634 208.191 86.234 208.191H138.724C140.795 208.191 142.473 206.513 142.473 204.442C142.473 202.371 140.795 200.693 138.724 200.693Z" fill="#F0F1F5"/>
<path d="M217.46 200.693H172.468C170.397 200.693 168.719 202.371 168.719 204.442C168.719 206.513 170.397 208.191 172.468 208.191H217.46C219.53 208.191 221.209 206.513 221.209 204.442C221.209 202.371 219.53 200.693 217.46 200.693Z" fill="#F0F1F5"/>
<path d="M44.9917 148.202C42.8147 148.205 40.6486 147.892 38.5616 147.273C36.581 146.668 34.4856 147.783 33.8811 149.764C33.2765 151.745 34.3919 153.84 36.3725 154.445C36.3898 154.45 36.4072 154.455 36.425 154.46C39.2055 155.286 42.0916 155.704 44.9921 155.701C47.0627 155.701 48.7414 154.022 48.7414 151.952C48.7414 149.881 47.0622 148.202 44.9917 148.202Z" fill="#F0F1F5"/>
<path d="M29.2445 141.776C24.9103 137.555 22.4752 131.756 22.4958 125.707C22.4949 123.529 22.8093 121.364 23.4294 119.277C24.0194 117.291 22.8881 115.202 20.9023 114.612C18.9166 114.022 16.8283 115.154 16.2382 117.139C13.0747 127.803 16.0601 139.343 23.9993 147.134C24.6999 147.819 25.6405 148.202 26.62 148.202C28.6906 148.202 30.3693 146.523 30.3689 144.453C30.3689 143.446 29.9635 142.481 29.2445 141.776Z" fill="#F0F1F5"/>
<path d="M192.827 98.6142C190.114 97.323 187.222 96.4508 184.248 96.0271C182.197 95.7352 180.298 97.1613 180.006 99.2122C179.714 101.263 181.14 103.163 183.191 103.455C185.416 103.769 187.58 104.42 189.61 105.385C190.112 105.621 190.66 105.741 191.214 105.738C193.285 105.726 194.954 104.038 194.942 101.967C194.933 100.538 194.113 99.2375 192.827 98.6142Z" fill="#F0F1F5"/>
<path d="M204.592 108.565C203.373 106.891 201.028 106.522 199.354 107.741C197.728 108.925 197.326 111.181 198.443 112.854C201.071 116.623 202.475 121.111 202.462 125.707C202.463 127.884 202.15 130.049 201.533 132.137C200.943 134.12 202.073 136.206 204.056 136.797C204.402 136.902 204.763 136.955 205.124 136.955C206.783 136.954 208.244 135.863 208.716 134.274C211.321 125.523 209.803 116.062 204.592 108.565Z" fill="#F0F1F5"/>
</svg>
